<?xml version="1.0" standalone="no"?>
<!DOCTYPE svg PUBLIC "-//W3C//DTD SVG 20010904//EN"
 "http://www.w3.org/TR/2001/REC-SVG-20010904/DTD/svg10.dtd">
<svg version="1.0" xmlns="http://www.w3.org/2000/svg"
 width="1024.000000pt" height="1024.000000pt" viewBox="0 0 1024.000000 1024.000000"
 preserveAspectRatio="xMidYMid meet">

<g transform="translate(0.000000,1024.000000) scale(0.100000,-0.100000)"
fill="#000000" stroke="none">
<path d="M5095 9034 c-199 -16 -480 -78 -670 -146 -266 -97 -583 -278 -795
-456 -184 -154 -373 -372 -514 -592 -123 -193 -231 -463 -283 -707 -25 -117
-27 -147 -27 -358 0 -201 2 -242 21 -327 31 -135 67 -238 119 -338 66 -127
101 -160 167 -160 76 0 128 53 135 136 4 44 0 61 -21 96 l-25 44 88 82 c102
95 172 193 208 295 22 61 27 93 30 208 3 112 1 142 -13 168 -34 66 -117 90
-180 51 -43 -26 -61 -67 -74 -167 -6 -50 -22 -107 -39 -145 -30 -65 -95 -148
-106 -137 -11 11 -8 349 3 421 88 541 466 1070 1001 1401 243 150 577 267 890
313 157 22 444 15 620 -16 793 -140 1474 -699 1718 -1411 51 -147 79 -284 88
-425 8 -133 -2 -287 -19 -281 -22 7 -87 102 -108 157 -11 30 -24 89 -28 130
-9 83 -29 132 -65 155 -61 40 -149 23 -186 -37 -17 -28 -20 -50 -20 -159 0
-220 62 -353 250 -533 l72 -70 -22 -38 c-57 -101 7 -238 110 -238 115 0 209
159 286 487 51 220 43 535 -21 788 -167 662 -650 1233 -1320 1560 -234 114
-500 195 -751 229 -112 16 -426 27 -519 20z"/>
<path d="M4210 6444 c-94 -11 -194 -40 -278 -80 -171 -83 -318 -253 -373 -434
-27 -88 -31 -224 -10 -310 25 -101 87 -209 165 -286 185 -185 464 -218 732
-88 203 99 398 353 441 574 17 85 12 173 -17 272 -29 100 -149 225 -273 286
-102 49 -274 78 -387 66z"/>
<path d="M6165 6441 c-252 -32 -445 -183 -501 -395 -55 -205 40 -459 251 -671
141 -141 264 -196 460 -203 88 -3 138 0 189 12 203 48 375 221 430 433 35 134
11 309 -61 447 -56 106 -192 238 -303 293 -141 71 -317 102 -465 84z"/>
<path d="M3052 5613 c-55 -27 -121 -135 -158 -259 -25 -83 -26 -294 -1 -384
45 -166 176 -361 314 -469 125 -97 314 -178 456 -196 l57 -6 0 -425 c0 -233
-3 -424 -7 -424 -16 0 -579 236 -610 256 -13 8 -23 23 -23 33 0 38 -52 198
-88 271 -53 108 -188 244 -292 293 -41 20 -102 43 -135 52 -82 22 -255 22
-331 0 -195 -56 -351 -202 -415 -387 -31 -88 -32 -240 -2 -316 l21 -53 -29
-57 c-31 -61 -59 -171 -59 -237 0 -67 28 -177 62 -244 49 -97 163 -213 251
-256 94 -45 174 -65 267 -65 147 0 286 56 387 156 110 109 150 232 104 323
-24 47 -58 70 -113 77 -62 8 -106 -18 -145 -86 -51 -87 -61 -99 -116 -127 -43
-23 -65 -28 -127 -28 -64 0 -82 4 -121 27 -93 55 -139 131 -139 230 0 92 29
137 130 201 56 36 53 66 -13 130 -81 78 -96 151 -53 242 29 62 86 117 151 147
77 35 190 32 270 -6 69 -34 144 -105 174 -165 12 -22 46 -111 76 -197 65 -187
83 -218 144 -248 59 -30 620 -266 1321 -556 202 -84 234 -100 224 -110 -6 -6
-181 -84 -389 -174 -209 -90 -420 -182 -470 -204 -49 -22 -165 -72 -256 -112
-223 -96 -299 -142 -383 -230 -75 -80 -96 -119 -96 -179 0 -110 -71 -213 -170
-246 -142 -47 -296 26 -362 170 -30 68 -31 189 -1 256 27 59 85 125 137 152
34 18 60 22 149 23 104 1 110 3 145 31 46 37 62 67 62 116 0 130 -160 206
-352 166 -203 -42 -395 -234 -449 -449 -18 -69 -21 -103 -17 -194 8 -176 64
-301 194 -432 222 -224 580 -230 803 -12 89 87 153 216 168 335 3 28 9 56 13
63 4 6 148 72 321 146 173 74 339 145 369 159 30 13 136 59 235 101 99 42 198
84 220 94 22 10 119 50 215 90 96 40 218 91 270 113 52 22 103 40 113 39 10 0
70 -24 133 -52 64 -29 131 -54 149 -57 48 -8 124 13 251 69 l112 48 318 -136
c176 -75 546 -233 824 -351 448 -191 599 -258 601 -266 0 -1 3 -24 5 -52 8
-81 43 -172 96 -250 74 -112 155 -175 285 -222 220 -80 475 -4 641 191 86 101
152 283 152 418 -1 253 -182 509 -418 590 -97 33 -247 33 -314 0 -57 -28 -84
-60 -99 -115 -15 -56 10 -119 59 -152 33 -23 47 -25 142 -25 118 0 159 -13
224 -70 79 -69 117 -187 95 -291 -23 -109 -76 -181 -172 -231 -34 -18 -58 -23
-127 -23 -74 0 -91 3 -131 27 -83 49 -137 149 -124 231 5 32 0 46 -31 92 -79
120 -211 215 -429 308 -96 41 -542 236 -892 389 -139 61 -250 114 -248 118 5
8 431 190 840 359 673 276 738 305 767 337 19 23 51 97 109 259 51 143 68 175
127 237 123 128 333 139 469 24 42 -36 83 -120 83 -171 0 -57 -42 -136 -95
-180 -62 -51 -61 -75 8 -119 28 -18 60 -42 69 -53 46 -51 63 -168 34 -238 -53
-125 -187 -189 -317 -152 -68 20 -119 64 -161 141 -41 72 -83 99 -147 93 -117
-12 -174 -138 -119 -259 79 -171 255 -285 458 -295 171 -9 325 49 441 167 169
171 212 410 114 628 l-27 59 21 68 c83 268 -86 572 -375 677 -45 16 -90 22
-186 26 -117 4 -135 2 -210 -22 -251 -78 -421 -276 -478 -554 l-16 -83 -314
-130 c-172 -71 -315 -129 -317 -129 -1 0 -3 191 -3 424 l0 424 68 12 c378 70
664 324 753 669 23 91 25 258 4 349 -20 83 -73 198 -114 245 -62 69 -159 73
-215 7 -43 -52 -43 -89 -2 -211 45 -133 50 -242 17 -349 -42 -135 -170 -280
-304 -344 -116 -56 -175 -66 -402 -66 -215 0 -258 -7 -305 -47 -62 -52 -74
-107 -39 -179 27 -58 81 -84 172 -84 l67 0 0 -494 0 -495 -22 -6 c-13 -4 -90
-36 -173 -70 -700 -295 -1045 -436 -1064 -437 -18 -1 -172 61 -521 210 -129
55 -327 138 -440 185 -113 47 -226 94 -252 106 l-48 20 0 491 0 490 70 0 c83
0 126 16 163 59 52 62 29 169 -46 219 -40 27 -41 27 -291 33 -226 5 -258 8
-316 28 -101 35 -169 78 -245 155 -163 165 -206 361 -126 575 37 101 39 152 9
197 -41 59 -113 79 -176 47z"/>
<path d="M5220 5539 c-32 -13 -78 -56 -97 -92 -36 -71 -276 -697 -283 -741
-13 -83 23 -163 94 -207 45 -29 132 -22 179 14 52 39 71 88 64 163 -6 60 -4
68 44 170 59 125 57 125 115 -16 32 -78 38 -105 36 -147 -8 -120 57 -203 158
-203 57 0 107 26 141 73 36 49 45 98 32 162 -12 54 -228 614 -270 700 -56 112
-132 156 -213 124z"/>
<path d="M4315 3966 c-47 -22 -59 -50 -63 -162 -3 -80 -1 -107 12 -133 34 -65
127 -78 177 -25 22 23 24 36 27 130 4 114 -5 153 -42 177 -34 23 -78 28 -111
13z"/>
<path d="M4753 3966 c-57 -26 -65 -56 -66 -265 -2 -204 1 -218 56 -251 57 -35
132 -20 168 34 20 30 26 355 7 410 -23 69 -99 102 -165 72z"/>
<path d="M5213 3964 c-55 -27 -63 -60 -63 -264 0 -190 3 -204 48 -252 32 -35
71 -43 116 -24 68 29 76 55 76 272 0 182 -1 193 -23 225 -39 58 -93 73 -154
43z"/>
<path d="M5673 3960 c-17 -10 -37 -28 -42 -39 -7 -12 -11 -95 -11 -213 0 -175
2 -196 20 -226 38 -63 120 -71 178 -18 l37 34 0 194 c0 166 -3 198 -18 225
-33 60 -105 79 -164 43z"/>
<path d="M6111 3949 c-33 -31 -41 -61 -41 -162 0 -74 4 -98 20 -125 38 -62
114 -70 166 -18 l34 34 0 117 c0 115 0 117 -29 146 -25 24 -38 29 -78 29 -36
0 -55 -6 -72 -21z"/>
<path d="M5143 1919 c-59 -60 -110 -117 -111 -125 -4 -18 215 -244 236 -244
23 0 243 222 240 241 -5 27 -216 239 -237 239 -11 0 -65 -46 -128 -111z"/>
</g>
</svg>
